HIERARCHY
ROOT Hips
{
	OFFSET -0.001795 -0.223333 0.028219
	CHANNELS 6 Xposition Yposition Zposition Zrotation Yrotation Xrotation 
	JOINT LeftUpLeg
	{
		OFFSET 0.069520 -0.091406 -0.006815
		CHANNELS 3 Zrotation Yrotation Xrotation
		JOINT LeftLeg
		{
			OFFSET 0.034277 -0.375199 -0.004496
			CHANNELS 3 Zrotation Yrotation Xrotation
			JOINT LeftFoot
			{
				OFFSET -0.013596 -0.397961 -0.043693
				CHANNELS 3 Zrotation Yrotation Xrotation
				JOINT LeftToe
				{
					OFFSET 0.026358 -0.055791 0.119288
					CHANNELS 3 Zrotation Yrotation Xrotation
					End Site
					{
						OFFSET 0.000000 0.000000 0.000000
					}
				}
			}
		}
	}
	JOINT RightUpLeg
	{
		OFFSET -0.067670 -0.090522 -0.004320
		CHANNELS 3 Zrotation Yrotation Xrotation
		JOINT RightLeg
		{
			OFFSET -0.038290 -0.382569 -0.008850
			CHANNELS 3 Zrotation Yrotation Xrotation
			JOINT RightFoot
			{
				OFFSET 0.015774 -0.398415 -0.042312
				CHANNELS 3 Zrotation Yrotation Xrotation
				JOINT RightToe
				{
					OFFSET -0.025372 -0.048144 0.123348
					CHANNELS 3 Zrotation Yrotation Xrotation
					End Site
					{
						OFFSET 0.000000 0.000000 0.000000
					}
				}
			}
		}
	}
	JOINT Spine
	{
		OFFSET -0.002533 0.108963 -0.026696
		CHANNELS 3 Zrotation Yrotation Xrotation
		JOINT Spine1
		{
			OFFSET 0.005487 0.135180 0.001092
			CHANNELS 3 Zrotation Yrotation Xrotation
			JOINT Spine2
			{
				OFFSET 0.001457 0.052922 0.025425
				CHANNELS 3 Zrotation Yrotation Xrotation
				JOINT Neck
				{
					OFFSET -0.002778 0.213870 -0.042857
					CHANNELS 3 Zrotation Yrotation Xrotation
					JOINT Head
					{
						OFFSET 0.005152 0.064970 0.051349
						CHANNELS 3 Zrotation Yrotation Xrotation
						End Site
						{
							OFFSET 0.000000 0.000000 0.000000
						}
					}
				}
				JOINT LeftShoulder
				{
					OFFSET 0.078845 0.121749 -0.034090
					CHANNELS 3 Zrotation Yrotation Xrotation
					JOINT LeftArm
					{
						OFFSET 0.090977 0.030469 -0.008868
						CHANNELS 3 Zrotation Yrotation Xrotation
						JOINT LeftForeArm
						{
							OFFSET 0.259612 -0.012772 -0.027456
							CHANNELS 3 Zrotation Yrotation Xrotation
							JOINT LeftHand
							{
								OFFSET 0.249234 0.008986 -0.001171
								CHANNELS 3 Zrotation Yrotation Xrotation
								End Site
								{
									OFFSET 0.000000 0.000000 0.000000
								}
							}
						}
					}
				}
				JOINT RightShoulder
				{
					OFFSET -0.081759 0.118833 -0.038615
					CHANNELS 3 Zrotation Yrotation Xrotation
					JOINT RightArm
					{
						OFFSET -0.096012 0.032551 -0.009143
						CHANNELS 3 Zrotation Yrotation Xrotation
						JOINT RightForeArm
						{
							OFFSET -0.253742 -0.013329 -0.021401
							CHANNELS 3 Zrotation Yrotation Xrotation
							JOINT RightHand
							{
								OFFSET -0.255298 0.007772 -0.005559
								CHANNELS 3 Zrotation Yrotation Xrotation
								End Site
								{
									OFFSET 0.000000 0.000000 0.000000
								}
							}
						}
					}
				}
			}
		}
	}
}
MOTION
Frames: 9
Frame Time: 0.050000
0.000000 0.943838 0.000000 -2.176345 8.328458 -2.458810 -0.690868 1.016928 12.916593 0.530459 0.047883 -2.550473 -4.049083 -3.654889 7.140967 0.000000 0.000000 0.000000 -2.020169 1.535504 -23.014346 2.976376 -0.355070 7.681215 -3.081365 -10.458107 18.503799 0.000000 0.000000 0.000000 -2.083108 -0.456048 13.837724 5.438794 -0.416159 -26.724040 -2.760752 -5.183082 27.607842 0.153123 1.252050 -23.089863 0.000000 0.000000 0.000000 -29.575040 1.234134 -2.828594 -48.568420 -8.784183 -4.739383 -12.143982 -31.535170 5.179902 0.000000 0.000000 0.000000 22.502365 1.070673 -0.485188 55.288215 2.020209 -7.161195 2.606840 27.487069 1.968241 0.000000 0.000000 0.000000 
-0.002287 0.937257 0.036756 -2.038927 8.666936 -1.949432 -0.221920 1.038122 14.471076 0.419606 0.028330 -1.781182 -3.643618 -3.787573 5.648189 0.000000 0.000000 0.000000 -2.085848 1.508549 -23.089808 2.285779 -0.263069 1.764973 -2.267956 -9.643408 22.661455 0.000000 0.000000 0.000000 -2.362750 -0.482627 15.140726 6.346724 -0.417002 -30.071177 -2.872145 -5.267925 29.473544 -0.216946 1.539773 -24.202032 0.000000 0.000000 0.000000 -28.942378 2.792720 -3.733399 -49.865113 -10.213002 -4.476797 -13.952792 -31.988264 5.883196 0.000000 0.000000 0.000000 23.190006 0.299970 -0.908517 54.634358 1.413053 -7.564551 2.452225 27.803348 1.985041 0.000000 0.000000 0.000000 
-0.005455 0.929970 0.076645 -1.771055 9.146280 -1.729828 0.244798 1.040891 16.207565 0.611484 -0.045148 -0.305729 -3.698607 -4.650892 4.403930 0.000000 0.000000 0.000000 -1.394581 1.620170 -22.986161 1.362099 -0.108232 3.144816 -2.221342 -9.468834 22.571575 0.000000 0.000000 0.000000 -1.190751 -0.617975 14.741640 6.202212 -0.407040 -29.428475 -3.576459 -5.393562 29.605776 -0.953389 2.048423 -24.857253 0.000000 0.000000 0.000000 -29.464788 2.235079 -3.496304 -49.682959 -11.466637 -3.951555 -15.007153 -32.289500 6.237897 0.000000 0.000000 0.000000 23.021125 0.584901 -0.665601 54.516573 1.962953 -7.340095 2.121089 27.252622 1.870184 0.000000 0.000000 0.000000 
-0.009961 0.923998 0.119421 -1.644395 10.677842 -1.806832 1.181796 0.863799 17.816594 1.163643 -0.221616 2.303549 -4.252181 -6.266584 3.474268 0.000000 0.000000 0.000000 -1.832328 1.462083 -23.373615 2.018144 -0.203413 6.157666 -3.182822 -10.750990 23.424661 0.000000 0.000000 0.000000 -0.282379 -0.808338 15.387054 5.626347 -0.208649 -31.152845 -4.147462 -7.234625 31.457068 -1.269123 2.140420 -27.093808 0.000000 0.000000 0.000000 -30.588058 2.962245 -3.714795 -49.372520 -11.709735 -4.119540 -15.773205 -33.689422 6.914178 0.000000 0.000000 0.000000 23.141454 0.358748 -0.988062 53.930573 2.833736 -7.065719 1.575676 27.612155 1.773870 0.000000 0.000000 0.000000 
-0.015517 0.923602 0.164423 -1.748058 11.221016 -1.599354 2.370398 0.617258 18.430289 1.368575 -0.477800 6.267407 -5.044653 -6.857304 4.780285 0.000000 0.000000 0.000000 -1.011583 1.612171 -23.524961 2.136055 -0.247525 9.926446 -4.310527 -12.166310 20.750892 0.000000 0.000000 0.000000 0.491999 -0.970120 15.920343 5.732654 -0.217151 -31.331088 -4.216376 -7.344029 30.881128 -0.870879 1.932662 -26.888508 0.000000 0.000000 0.000000 -30.747179 2.613838 -3.619067 -49.485595 -10.484649 -4.534283 -17.166835 -34.167521 7.441621 0.000000 0.000000 0.000000 23.925993 -0.020123 -1.226085 52.893748 2.720847 -6.956487 1.451263 27.307341 1.714414 0.000000 0.000000 0.000000 
-0.021528 0.927442 0.209530 -1.791482 10.616559 -1.233297 2.754023 0.564356 17.573237 1.762488 -0.895645 11.224582 -5.979765 -5.050010 10.161919 0.000000 0.000000 0.000000 -0.707367 1.701994 -23.319290 3.569892 -0.635371 13.405780 -4.428773 -12.277309 17.442791 0.000000 0.000000 0.000000 0.811930 -0.988982 15.716661 6.895306 -0.464027 -30.797640 -4.719197 -7.685732 29.882146 -1.085167 1.987121 -27.958479 0.000000 0.000000 0.000000 -30.945111 3.595441 -4.086360 -49.765180 -8.910171 -5.122600 -16.956823 -33.446915 7.239115 0.000000 0.000000 0.000000 22.983662 1.266961 -0.679667 53.040550 3.870732 -6.301383 0.103206 25.826321 1.250104 0.000000 0.000000 0.000000 
-0.027716 0.933125 0.252600 -1.916272 9.760044 -0.577891 3.403513 0.418395 14.040537 1.721136 -1.541719 18.981894 -7.545549 -4.169769 16.326288 0.000000 0.000000 0.000000 0.545994 1.964098 -22.679106 3.180766 -0.564880 15.866223 -3.767227 -11.044575 14.496896 0.000000 0.000000 0.000000 1.929933 -1.044254 14.640160 6.648903 -0.399806 -30.959777 -4.727822 -7.296461 30.332056 -1.994606 2.498615 -28.185225 0.000000 0.000000 0.000000 -31.341992 3.559332 -4.017285 -49.375337 -7.572637 -5.708689 -17.260971 -31.825414 6.955524 0.000000 0.000000 0.000000 22.157114 1.642388 -0.431909 52.888975 5.180910 -5.785494 0.737590 25.282547 1.334891 0.000000 0.000000 0.000000 
-0.033281 0.939035 0.290641 -2.287863 8.633762 -0.811462 4.386627 0.193721 9.002772 0.204828 -2.034041 29.651907 -7.170627 -1.099137 21.912353 0.000000 0.000000 0.000000 2.078055 2.145697 -20.699162 3.093431 -0.516173 16.675564 -3.648461 -10.858969 13.173582 0.000000 0.000000 0.000000 2.481296 -1.115680 14.773834 7.466140 -0.627576 -30.059047 -4.677465 -5.539191 29.693664 -2.525098 3.039539 -29.392533 0.000000 0.000000 0.000000 -31.828943 2.570486 -3.856588 -48.622548 -6.570603 -5.831249 -16.954733 -31.369899 6.628783 0.000000 0.000000 0.000000 21.028512 2.682117 0.521771 53.444527 6.563653 -5.232510 1.200398 25.637736 1.488095 0.000000 0.000000 0.000000 
-0.037837 0.944119 0.323414 -2.269147 8.394923 -1.623381 4.992561 -0.045134 2.634976 -2.125605 -2.136479 40.993005 -3.941470 3.541632 23.015916 0.000000 0.000000 0.000000 2.879948 2.032970 -17.956417 2.726177 -0.408204 16.658700 -3.430119 -10.447830 12.813236 0.000000 0.000000 0.000000 2.656614 -1.215171 15.742816 6.965961 -0.500817 -30.549217 -3.620457 -4.660647 30.617051 -2.072020 2.922884 -29.806636 0.000000 0.000000 0.000000 -33.098924 2.382903 -4.173678 -47.260982 -6.766457 -5.617851 -16.635113 -30.025694 6.164401 0.000000 0.000000 0.000000 20.630868 3.566150 1.281268 52.453787 8.331885 -4.578667 1.419790 26.367126 1.613562 0.000000 0.000000 0.000000 
